<svg width="90" height="26" viewBox="0 0 90 26" fill="none" xmlns="http://www.w3.org/2000/svg">
<path d="M16.873 12.6832C16.8615 10.7159 17.7536 9.2333 19.5553 8.14007C18.5476 6.69782 17.0232 5.90458 15.0137 5.7517C13.111 5.60171 11.0293 6.85935 10.267 6.85935C9.46149 6.85935 7.61943 5.80362 6.17004 5.80362C3.17885 5.84977 0 8.18622 0 12.9399C0 14.3446 0.256964 15.7955 0.770893 17.2897C1.45806 19.2569 3.93531 24.0769 6.51939 23.9991C7.87062 23.9673 8.8263 23.0414 10.5846 23.0414C12.291 23.0414 13.1745 23.9991 14.6816 23.9991C17.2888 23.9616 19.5293 19.58 20.1818 17.607C16.6854 15.96 16.873 12.7841 16.873 12.6832ZM13.8385 3.88543C15.3024 2.14895 15.1696 0.568247 15.1263 0C13.8328 0.0749971 12.3372 0.879774 11.4854 1.86916C10.5471 2.93066 9.99563 4.2431 10.114 5.72285C11.5114 5.82958 12.7876 5.11134 13.8385 3.88543Z" fill="#9997A0"/>
<path d="M27.9082 9.92538H25.4024V2.53077H27.9587C28.6929 2.53077 29.3235 2.6788 29.8507 2.97488C30.3802 3.26854 30.787 3.69099 31.0711 4.24221C31.3551 4.79344 31.4971 5.45299 31.4971 6.22085C31.4971 6.99112 31.3539 7.65308 31.0675 8.20671C30.7834 8.76034 30.373 9.1852 29.8362 9.48127C29.3019 9.77734 28.6592 9.92538 27.9082 9.92538ZM26.7419 8.76636H27.8432C28.3583 8.76636 28.7879 8.67248 29.1322 8.48473C29.4764 8.29457 29.7351 8.01173 29.9085 7.63623C30.0818 7.25831 30.1684 6.78652 30.1684 6.22085C30.1684 5.65518 30.0818 5.1858 29.9085 4.8127C29.7351 4.43719 29.4788 4.15676 29.1394 3.97142C28.8024 3.78366 28.3836 3.68978 27.8829 3.68978H26.7419V8.76636Z" fill="#9997A0"/>
<path d="M32.7121 9.92538V4.37942H34.0192V9.92538H32.7121ZM33.3693 3.5923C33.1623 3.5923 32.9841 3.52369 32.8349 3.38649C32.6856 3.24688 32.611 3.07958 32.611 2.88461C32.611 2.68723 32.6856 2.51993 32.8349 2.38273C32.9841 2.24312 33.1623 2.17331 33.3693 2.17331C33.5787 2.17331 33.7568 2.24312 33.9036 2.38273C34.0529 2.51993 34.1275 2.68723 34.1275 2.88461C34.1275 3.07958 34.0529 3.24688 33.9036 3.38649C33.7568 3.52369 33.5787 3.5923 33.3693 3.5923Z" fill="#9997A0"/>
<path d="M39.7466 5.84534L38.5551 5.97533C38.5214 5.85497 38.4624 5.74184 38.3781 5.63593C38.2963 5.53001 38.1856 5.44456 38.046 5.37957C37.9063 5.31458 37.7354 5.28208 37.5332 5.28208C37.2612 5.28208 37.0326 5.34106 36.8472 5.459C36.6643 5.57695 36.574 5.7298 36.5764 5.91756C36.574 6.07883 36.633 6.21002 36.7533 6.31112C36.8761 6.41222 37.0783 6.49526 37.3599 6.56025L38.3059 6.76245C38.8307 6.87558 39.2206 7.05491 39.4758 7.30044C39.7333 7.54596 39.8633 7.86731 39.8657 8.26448C39.8633 8.61351 39.761 8.92162 39.5588 9.18881C39.359 9.45359 39.081 9.6606 38.7248 9.80984C38.3685 9.95908 37.9593 10.0337 37.4971 10.0337C36.8183 10.0337 36.2719 9.89168 35.8579 9.60764C35.4439 9.3212 35.1972 8.92282 35.1177 8.41252L36.3923 8.28975C36.4501 8.54009 36.5728 8.72905 36.7606 8.85663C36.9483 8.9842 37.1926 9.04799 37.4935 9.04799C37.804 9.04799 38.0532 8.9842 38.2409 8.85663C38.4311 8.72905 38.5262 8.57139 38.5262 8.38363C38.5262 8.22476 38.4648 8.09358 38.342 7.99007C38.2217 7.88656 38.0339 7.80713 37.7788 7.75177L36.8328 7.55318C36.3008 7.44245 35.9073 7.25591 35.6521 6.99353C35.3969 6.72875 35.2706 6.39416 35.273 5.98977C35.2706 5.64796 35.3632 5.35189 35.551 5.10155C35.7412 4.8488 36.0047 4.65383 36.3417 4.51662C36.6811 4.37701 37.0723 4.30721 37.5152 4.30721C38.1651 4.30721 38.6766 4.44561 39.0497 4.72243C39.4252 4.99925 39.6575 5.37355 39.7466 5.84534Z" fill="#9997A0"/>
<path d="M40.9435 12.0051V4.37942H42.2289V5.29652H42.3047C42.3721 5.16173 42.4672 5.0185 42.59 4.86686C42.7127 4.7128 42.8788 4.58162 43.0882 4.4733C43.2977 4.36257 43.5648 4.30721 43.8898 4.30721C44.3183 4.30721 44.7046 4.41673 45.0488 4.63578C45.3954 4.85241 45.6698 5.17376 45.872 5.59982C46.0766 6.02347 46.1789 6.5434 46.1789 7.15962C46.1789 7.76862 46.0791 8.28614 45.8793 8.7122C45.6795 9.13826 45.4075 9.46322 45.0633 9.68708C44.719 9.91094 44.3291 10.0229 43.8934 10.0229C43.5757 10.0229 43.3121 9.96991 43.1027 9.864C42.8933 9.75809 42.7248 9.63051 42.5972 9.48127C42.472 9.32962 42.3745 9.1864 42.3047 9.0516H42.2506V12.0051H40.9435ZM42.2253 7.1524C42.2253 7.51106 42.2758 7.82518 42.3769 8.09478C42.4804 8.36437 42.6285 8.575 42.821 8.72664C43.016 8.87588 43.2519 8.9505 43.5287 8.9505C43.8176 8.9505 44.0595 8.87348 44.2545 8.71942C44.4494 8.56296 44.5963 8.34993 44.695 8.08034C44.7961 7.80833 44.8466 7.49902 44.8466 7.1524C44.8466 6.80818 44.7973 6.50248 44.6986 6.23529C44.5999 5.96811 44.4531 5.75869 44.2581 5.60704C44.0631 5.45539 43.82 5.37957 43.5287 5.37957C43.2495 5.37957 43.0124 5.45299 42.8174 5.59982C42.6225 5.74665 42.4744 5.95246 42.3733 6.21724C42.2746 6.48202 42.2253 6.79374 42.2253 7.1524Z" fill="#9997A0"/>
<path d="M49.7174 10.0337C49.1758 10.0337 48.7064 9.91455 48.3092 9.67624C47.9121 9.43794 47.604 9.10456 47.3849 8.67609C47.1683 8.24763 47.0599 7.74695 47.0599 7.17406C47.0599 6.60117 47.1683 6.09929 47.3849 5.66842C47.604 5.23755 47.9121 4.90296 48.3092 4.66466C48.7064 4.42636 49.1758 4.30721 49.7174 4.30721C50.259 4.30721 50.7284 4.42636 51.1255 4.66466C51.5227 4.90296 51.8296 5.23755 52.0463 5.66842C52.2653 6.09929 52.3748 6.60117 52.3748 7.17406C52.3748 7.74695 52.2653 8.24763 52.0463 8.67609C51.8296 9.10456 51.5227 9.43794 51.1255 9.67624C50.7284 9.91455 50.259 10.0337 49.7174 10.0337ZM49.7246 8.98661C50.0183 8.98661 50.2638 8.90597 50.4612 8.7447C50.6586 8.58101 50.8054 8.36197 50.9017 8.08756C51.0004 7.81315 51.0497 7.50745 51.0497 7.17045C51.0497 6.83105 51.0004 6.52415 50.9017 6.24974C50.8054 5.97292 50.6586 5.75267 50.4612 5.58899C50.2638 5.4253 50.0183 5.34346 49.7246 5.34346C49.4237 5.34346 49.1734 5.4253 48.9736 5.58899C48.7762 5.75267 48.6282 5.97292 48.5295 6.24974C48.4332 6.52415 48.3851 6.83105 48.3851 7.17045C48.3851 7.50745 48.4332 7.81315 48.5295 8.08756C48.6282 8.36197 48.7762 8.58101 48.9736 8.7447C49.1734 8.90597 49.4237 8.98661 49.7246 8.98661Z" fill="#9997A0"/>
<path d="M54.7913 6.67579V9.92538H53.4842V4.37942H54.7335V5.3218H54.7985C54.9261 5.01128 55.1295 4.76456 55.4087 4.58162C55.6903 4.39868 56.0381 4.30721 56.4522 4.30721C56.8349 4.30721 57.1683 4.38905 57.4523 4.55273C57.7388 4.71641 57.9602 4.95351 58.1167 5.26403C58.2755 5.57454 58.3538 5.95126 58.3514 6.39416V9.92538H57.0443V6.59636C57.0443 6.22567 56.948 5.93561 56.7554 5.72619C56.5653 5.51677 56.3017 5.41207 55.9647 5.41207C55.736 5.41207 55.5326 5.46261 55.3545 5.56371C55.1788 5.6624 55.0404 5.80563 54.9393 5.99338C54.8406 6.18113 54.7913 6.40861 54.7913 6.67579Z" fill="#9997A0"/>
<path d="M59.6801 9.92538V4.37942H60.9871V9.92538H59.6801ZM59.8353 3.65007L60.6441 2H61.9223L60.8138 3.65007H59.8353Z" fill="#9997A0"/>
<path d="M67.285 4.37942L65.31 9.92538H63.8657L61.8907 4.37942H63.2844L64.559 8.49917H64.6167L65.8949 4.37942H67.285Z" fill="#9997A0"/>
<path d="M70.4561 10.0337C69.9 10.0337 69.4198 9.91816 69.0154 9.68708C68.6134 9.45359 68.3041 9.12382 68.0875 8.69776C67.8708 8.26929 67.7625 7.76501 67.7625 7.1849C67.7625 6.61441 67.8708 6.11374 68.0875 5.68286C68.3065 5.24959 68.6122 4.91259 69.0046 4.67188C69.3969 4.42876 69.8579 4.30721 70.3875 4.30721C70.7293 4.30721 71.0518 4.36257 71.3551 4.4733C71.6608 4.58162 71.9304 4.75011 72.1639 4.97879C72.3998 5.20746 72.5851 5.49872 72.7199 5.85256C72.8547 6.204 72.9221 6.62284 72.9221 7.10907V7.50985H68.3763V6.62885H71.6692C71.6668 6.37852 71.6127 6.15586 71.5068 5.96088C71.4009 5.7635 71.2528 5.60824 71.0627 5.49511C70.8749 5.38198 70.6559 5.32541 70.4055 5.32541C70.1383 5.32541 69.9036 5.3904 69.7014 5.52039C69.4992 5.64796 69.3416 5.81646 69.2284 6.02588C69.1177 6.23289 69.0611 6.46036 69.0587 6.70829V7.47736C69.0587 7.79991 69.1177 8.07673 69.2357 8.30781C69.3536 8.53648 69.5185 8.7122 69.7303 8.83496C69.9422 8.95532 70.1901 9.0155 70.4741 9.0155C70.6643 9.0155 70.8364 8.98902 70.9904 8.93606C71.1445 8.8807 71.2781 8.80006 71.3912 8.69415C71.5044 8.58823 71.5898 8.45705 71.6476 8.30059L72.868 8.43779C72.791 8.76034 72.6441 9.04197 72.4275 9.28268C72.2132 9.52099 71.9388 9.70633 71.6043 9.83872C71.2697 9.96871 70.8869 10.0337 70.4561 10.0337Z" fill="#9997A0"/>
<path d="M75.335 2.53077V9.92538H74.0279V2.53077H75.335Z" fill="#9997A0"/>
<path d="M80.5081 6.67579V9.92538H79.2011V4.37942H80.4503V5.3218H80.5153C80.6429 5.01128 80.8463 4.76456 81.1255 4.58162C81.4072 4.39868 81.755 4.30721 82.169 4.30721C82.5517 4.30721 82.8851 4.38905 83.1692 4.55273C83.4556 4.71641 83.6771 4.95351 83.8335 5.26403C83.9924 5.57454 84.0706 5.95126 84.0682 6.39416V9.92538H82.7612V6.59636C82.7612 6.22567 82.6649 5.93561 82.4723 5.72619C82.2822 5.51677 82.0186 5.41207 81.6816 5.41207C81.4529 5.41207 81.2495 5.46261 81.0714 5.56371C80.8957 5.6624 80.7573 5.80563 80.6562 5.99338C80.5575 6.18113 80.5081 6.40861 80.5081 6.67579Z" fill="#9997A0"/>
<path d="M86.9928 10.0373C86.6414 10.0373 86.3249 9.97473 86.0432 9.84956C85.764 9.72198 85.5426 9.53423 85.3789 9.28629C85.2176 9.03836 85.137 8.73266 85.137 8.36919C85.137 8.05627 85.1947 7.7975 85.3103 7.5929C85.4258 7.3883 85.5835 7.22461 85.7833 7.10185C85.9831 6.97909 86.2081 6.88641 86.4585 6.82383C86.7112 6.75884 86.9724 6.7119 87.242 6.68301C87.5669 6.64932 87.8305 6.61923 88.0327 6.59275C88.2349 6.56386 88.3817 6.52054 88.4732 6.46276C88.5671 6.40259 88.614 6.30991 88.614 6.18474V6.16308C88.614 5.89108 88.5334 5.68046 88.3721 5.53122C88.2108 5.38198 87.9786 5.30736 87.6753 5.30736C87.3551 5.30736 87.1012 5.37716 86.9134 5.51677C86.7281 5.65639 86.6029 5.82127 86.5379 6.01143L85.3175 5.83812C85.4138 5.50113 85.5727 5.2195 85.7941 4.99323C86.0156 4.76455 86.2864 4.59365 86.6065 4.48052C86.9267 4.36498 87.2805 4.30721 87.668 4.30721C87.9352 4.30721 88.2012 4.3385 88.466 4.40108C88.7308 4.46367 88.9727 4.56717 89.1917 4.7116C89.4108 4.85362 89.5865 5.04739 89.7189 5.29291C89.8537 5.53844 89.9211 5.84534 89.9211 6.21363V9.92538H88.6646V9.16353H88.6213C88.5418 9.31759 88.4299 9.46201 88.2855 9.59681C88.1434 9.7292 87.9641 9.83632 87.7475 9.91816C87.5332 9.99759 87.2817 10.0373 86.9928 10.0373ZM87.3322 9.07688C87.5946 9.07688 87.8221 9.02512 88.0147 8.92162C88.2072 8.81571 88.3553 8.67609 88.4588 8.50278C88.5647 8.32947 88.6176 8.14051 88.6176 7.93591V7.28238C88.5767 7.31608 88.5069 7.34737 88.4082 7.37626C88.3119 7.40514 88.2036 7.43042 88.0833 7.45208C87.9629 7.47375 87.8438 7.493 87.7258 7.50985C87.6079 7.5267 87.5056 7.54115 87.4189 7.55318C87.2239 7.57966 87.0494 7.62299 86.8954 7.68317C86.7413 7.74334 86.6197 7.82759 86.5307 7.93591C86.4416 8.04182 86.3971 8.17903 86.3971 8.34753C86.3971 8.58824 86.485 8.76997 86.6607 8.89273C86.8364 9.0155 87.0602 9.07688 87.3322 9.07688Z" fill="#9997A0"/>
<path d="M26.8766 23.2703H25L28.4168 13.5649H30.5873L34.0088 23.2703H32.1322L29.5399 15.5553H29.4641L26.8766 23.2703ZM26.9382 19.4649H32.0563V20.8772H26.9382V19.4649Z" fill="#9997A0"/>
<path d="M35.2113 26V15.9913H36.8984V17.195H36.9979C37.0864 17.0181 37.2112 16.8301 37.3723 16.631C37.5334 16.4288 37.7514 16.2567 38.0263 16.1145C38.3011 15.9692 38.6518 15.8965 39.0783 15.8965C39.6407 15.8965 40.1478 16.0402 40.5995 16.3277C41.0545 16.6121 41.4146 17.0339 41.68 17.5931C41.9486 18.1491 42.0828 18.8315 42.0828 19.6403C42.0828 20.4396 41.9517 21.1189 41.6895 21.6781C41.4273 22.2373 41.0703 22.6638 40.6185 22.9576C40.1667 23.2514 39.6549 23.3983 39.0831 23.3983C38.666 23.3983 38.3201 23.3288 38.0452 23.1898C37.7704 23.0508 37.5492 22.8833 37.3818 22.6875C37.2175 22.4884 37.0895 22.3004 36.9979 22.1235H36.9268V26H35.2113ZM36.8937 19.6308C36.8937 20.1015 36.96 20.5138 37.0927 20.8677C37.2285 21.2215 37.4228 21.498 37.6756 21.697C37.9315 21.8929 38.2411 21.9908 38.6044 21.9908C38.9835 21.9908 39.3011 21.8897 39.557 21.6875C39.8129 21.4822 40.0056 21.2026 40.1351 20.8487C40.2678 20.4917 40.3342 20.0858 40.3342 19.6308C40.3342 19.179 40.2694 18.7778 40.1399 18.4271C40.0103 18.0764 39.8176 17.8016 39.5617 17.6025C39.3058 17.4035 38.9867 17.304 38.6044 17.304C38.2379 17.304 37.9268 17.4003 37.6708 17.5931C37.4149 17.7858 37.2206 18.0559 37.088 18.4034C36.9584 18.7509 36.8937 19.1601 36.8937 19.6308Z" fill="#9997A0"/>
<path d="M43.5519 26V15.9913H45.239V17.195H45.3385C45.427 17.0181 45.5518 16.8301 45.7129 16.631C45.874 16.4288 46.092 16.2567 46.3669 16.1145C46.6417 15.9692 46.9924 15.8965 47.4189 15.8965C47.9813 15.8965 48.4884 16.0402 48.9401 16.3277C49.3951 16.6121 49.7552 17.0339 50.0206 17.5931C50.2892 18.1491 50.4234 18.8315 50.4234 19.6403C50.4234 20.4396 50.2923 21.1189 50.0301 21.6781C49.7679 22.2373 49.4109 22.6638 48.9591 22.9576C48.5073 23.2514 47.9955 23.3983 47.4237 23.3983C47.0066 23.3983 46.6607 23.3288 46.3858 23.1898C46.111 23.0508 45.8898 22.8833 45.7224 22.6875C45.5581 22.4884 45.4301 22.3004 45.3385 22.1235H45.2674V26H43.5519ZM45.2343 19.6308C45.2343 20.1015 45.3006 20.5138 45.4333 20.8677C45.5691 21.2215 45.7634 21.498 46.0162 21.697C46.2721 21.8929 46.5817 21.9908 46.945 21.9908C47.3241 21.9908 47.6417 21.8897 47.8976 21.6875C48.1535 21.4822 48.3462 21.2026 48.4757 20.8487C48.6084 20.4917 48.6748 20.0858 48.6748 19.6308C48.6748 19.179 48.61 18.7778 48.4805 18.4271C48.3509 18.0764 48.1582 17.8016 47.9023 17.6025C47.6464 17.4035 47.3273 17.304 46.945 17.304C46.5785 17.304 46.2674 17.4003 46.0114 17.5931C45.7555 17.7858 45.5612 18.0559 45.4286 18.4034C45.299 18.7509 45.2343 19.1601 45.2343 19.6308Z" fill="#9997A0"/>
<path d="M60.553 16.233C60.5088 15.8191 60.3224 15.4968 59.9938 15.2662C59.6684 15.0356 59.245 14.9203 58.7238 14.9203C58.3573 14.9203 58.0429 14.9756 57.7807 15.0861C57.5185 15.1967 57.3179 15.3468 57.1789 15.5363C57.0398 15.7259 56.9688 15.9423 56.9656 16.1856C56.9656 16.3878 57.0114 16.5631 57.103 16.7116C57.1978 16.8601 57.3258 16.9865 57.4869 17.0907C57.648 17.1918 57.8265 17.2771 58.0224 17.3466C58.2183 17.4161 58.4157 17.4746 58.6148 17.522L59.5246 17.7494C59.8911 17.8347 60.2434 17.9501 60.5814 18.0954C60.9226 18.2407 61.2275 18.4239 61.4961 18.6451C61.7678 18.8663 61.9826 19.1332 62.1406 19.446C62.2985 19.7588 62.3775 20.1252 62.3775 20.5454C62.3775 21.1141 62.2322 21.6149 61.9415 22.0477C61.6509 22.4774 61.2307 22.8138 60.681 23.0571C60.1344 23.2972 59.4725 23.4173 58.6953 23.4173C57.9403 23.4173 57.2847 23.3004 56.7287 23.0666C56.1758 22.8328 55.7429 22.4916 55.4302 22.043C55.1206 21.5943 54.9531 21.0478 54.9278 20.4033H56.6576C56.6828 20.7413 56.7871 21.0225 56.9703 21.2468C57.1536 21.4711 57.3921 21.6386 57.6859 21.7491C57.9829 21.8597 58.3146 21.915 58.6811 21.915C59.0634 21.915 59.3983 21.8581 59.6858 21.7444C59.9764 21.6275 60.2039 21.4664 60.3682 21.261C60.5325 21.0525 60.6162 20.8092 60.6194 20.5312C60.6162 20.2785 60.542 20.07 60.3966 19.9057C60.2513 19.7382 60.0475 19.5992 59.7853 19.4886C59.5262 19.3749 59.2229 19.2738 58.8754 19.1853L57.7712 18.901C56.9719 18.6957 56.3401 18.3845 55.8756 17.9674C55.4144 17.5472 55.1837 16.9896 55.1837 16.2946C55.1837 15.7227 55.3386 15.222 55.6482 14.7923C55.9609 14.3626 56.3859 14.0293 56.9229 13.7924C57.46 13.5523 58.0682 13.4322 58.7475 13.4322C59.4362 13.4322 60.0396 13.5523 60.5577 13.7924C61.079 14.0293 61.4882 14.3595 61.7851 14.7828C62.0821 15.203 62.2353 15.6864 62.2448 16.233H60.553Z" fill="#9997A0"/>
<path d="M67.5039 15.9913V17.3182H63.3194V15.9913H67.5039ZM64.3525 14.2473H66.068V21.0809C66.068 21.3116 66.1027 21.4885 66.1723 21.6117C66.2449 21.7318 66.3397 21.8139 66.4566 21.8581C66.5735 21.9024 66.703 21.9245 66.8452 21.9245C66.9526 21.9245 67.0505 21.9166 67.139 21.9008C67.2306 21.885 67.3001 21.8708 67.3475 21.8581L67.6366 23.1993C67.545 23.2309 67.4139 23.2656 67.2433 23.3035C67.0758 23.3414 66.8705 23.3635 66.6272 23.3699C66.1975 23.3825 65.8105 23.3177 65.4661 23.1756C65.1218 23.0302 64.8485 22.8059 64.6463 22.5026C64.4473 22.1993 64.3493 21.8202 64.3525 21.3653V14.2473Z" fill="#9997A0"/>
<path d="M72.0356 23.4125C71.3247 23.4125 70.7086 23.2561 70.1874 22.9434C69.6661 22.6306 69.2617 22.193 68.9742 21.6307C68.6898 21.0683 68.5477 20.4112 68.5477 19.6592C68.5477 18.9073 68.6898 18.2486 68.9742 17.6831C69.2617 17.1176 69.6661 16.6784 70.1874 16.3657C70.7086 16.0529 71.3247 15.8965 72.0356 15.8965C72.7464 15.8965 73.3625 16.0529 73.8838 16.3657C74.405 16.6784 74.8079 17.1176 75.0922 17.6831C75.3797 18.2486 75.5234 18.9073 75.5234 19.6592C75.5234 20.4112 75.3797 21.0683 75.0922 21.6307C74.8079 22.193 74.405 22.6306 73.8838 22.9434C73.3625 23.2561 72.7464 23.4125 72.0356 23.4125ZM72.045 22.0382C72.4305 22.0382 72.7527 21.9324 73.0118 21.7207C73.2709 21.5059 73.4636 21.2184 73.5899 20.8582C73.7195 20.498 73.7842 20.0968 73.7842 19.6545C73.7842 19.209 73.7195 18.8062 73.5899 18.4461C73.4636 18.0827 73.2709 17.7937 73.0118 17.5788C72.7527 17.364 72.4305 17.2566 72.045 17.2566C71.6501 17.2566 71.3215 17.364 71.0593 17.5788C70.8003 17.7937 70.606 18.0827 70.4764 18.4461C70.3501 18.8062 70.2869 19.209 70.2869 19.6545C70.2869 20.0968 70.3501 20.498 70.4764 20.8582C70.606 21.2184 70.8003 21.5059 71.0593 21.7207C71.3215 21.9324 71.6501 22.0382 72.045 22.0382Z" fill="#9997A0"/>
<path d="M76.9795 23.2703V15.9913H78.6429V17.2045H78.7187C78.8514 16.7843 79.0789 16.4604 79.4011 16.233C79.7265 16.0023 80.0977 15.887 80.5148 15.887C80.6096 15.887 80.7154 15.8918 80.8323 15.9012C80.9523 15.9076 81.0519 15.9186 81.1308 15.9344V17.5125C81.0582 17.4872 80.9429 17.4651 80.7849 17.4461C80.6301 17.424 80.48 17.413 80.3347 17.413C80.0219 17.413 79.7407 17.4809 79.4912 17.6167C79.2447 17.7494 79.0504 17.9343 78.9083 18.1712C78.7661 18.4082 78.695 18.6814 78.695 18.991V23.2703H76.9795Z" fill="#9997A0"/>
<path d="M85.1933 23.4125C84.4635 23.4125 83.8332 23.2609 83.3025 22.9576C82.7749 22.6511 82.3689 22.2183 82.0846 21.6591C81.8002 21.0967 81.6581 20.4349 81.6581 19.6735C81.6581 18.9247 81.8002 18.2676 82.0846 17.702C82.3721 17.1334 82.7733 16.6911 83.2883 16.3751C83.8032 16.056 84.4082 15.8965 85.1033 15.8965C85.5519 15.8965 85.9753 15.9692 86.3733 16.1145C86.7746 16.2567 87.1284 16.4778 87.4349 16.7779C87.7445 17.0781 87.9878 17.4604 88.1647 17.9248C88.3416 18.386 88.4301 18.9358 88.4301 19.5739V20.1H82.4637V18.9437H86.7856C86.7825 18.6151 86.7114 18.3229 86.5724 18.0669C86.4334 17.8079 86.2391 17.6041 85.9895 17.4556C85.7431 17.3071 85.4556 17.2329 85.127 17.2329C84.7763 17.2329 84.4683 17.3182 84.2029 17.4888C83.9375 17.6562 83.7306 17.8774 83.5821 18.1522C83.4367 18.424 83.3625 18.7225 83.3593 19.0479V20.0573C83.3593 20.4807 83.4368 20.844 83.5916 21.1473C83.7464 21.4474 83.9628 21.678 84.2408 21.8392C84.5188 21.9971 84.8442 22.0761 85.217 22.0761C85.4666 22.0761 85.6925 22.0414 85.8947 21.9719C86.0969 21.8992 86.2722 21.7934 86.4207 21.6544C86.5692 21.5153 86.6814 21.3432 86.7572 21.1378L88.359 21.3179C88.2579 21.7412 88.0652 22.1109 87.7808 22.4268C87.4996 22.7396 87.1395 22.9828 86.7003 23.1566C86.2612 23.3272 85.7589 23.4125 85.1933 23.4125Z" fill="#9997A0"/>
</svg>
