<svg width="771" height="416" viewBox="0 0 771 416" fill="none" xmlns="http://www.w3.org/2000/svg">
<path d="M770.423 393.62H209V393.901H770.423V393.62Z" fill="#EBEBEB"/>
<path d="M714.169 411.687H676.98V411.967H714.169V411.687Z" fill="#EBEBEB"/>
<path d="M580.909 414.741H571.152V415.021H580.909V414.741Z" fill="#EBEBEB"/>
<path d="M675.857 401.266H654.31V401.547H675.857V401.266Z" fill="#EBEBEB"/>
<path d="M316.4 403.153H267.904V403.434H316.4V403.153Z" fill="#EBEBEB"/>
<path d="M333.512 403.153H326.405V403.434H333.512V403.153Z" fill="#EBEBEB"/>
<path d="M461.809 407.891H356.621V408.172H461.809V407.891Z" fill="#EBEBEB"/>
<path d="M643.339 106.284L653.445 113.683C592.239 197.492 515.335 247.594 424.766 262.584C360.764 273.183 311.572 261.618 303.948 259.653V282.75C325.807 287.377 348.1 289.635 370.443 289.487C389.504 289.484 408.534 287.948 427.349 284.895C470.784 277.854 512.489 262.64 550.255 240.059C595.697 212.976 636.468 174.934 671.523 126.978L681.471 134.287L681.64 94.1456L643.339 106.284Z" fill="#E0E0E0"/>
<path d="M315.109 291.767H305.037V392.946H315.109V291.767Z" fill="#EBEBEB"/>
<path d="M339.407 296.258H329.335V392.946H339.407V296.258Z" fill="#EBEBEB"/>
<path d="M363.717 298.504H353.645V392.946H363.717V298.504Z" fill="#EBEBEB"/>
<path d="M388.015 298.504H377.943V392.946H388.015V298.504Z" fill="#EBEBEB"/>
<path d="M412.325 297.381H402.253V392.946H412.325V297.381Z" fill="#EBEBEB"/>
<path d="M436.623 294.012H426.551V392.946H436.623V294.012Z" fill="#EBEBEB"/>
<path d="M460.922 288.398H450.85V392.946H460.922V288.398Z" fill="#EBEBEB"/>
<path d="M485.232 282.784H475.16V392.946H485.232V282.784Z" fill="#EBEBEB"/>
<path d="M509.53 278.292H499.458V392.946H509.53V278.292Z" fill="#EBEBEB"/>
<path d="M533.84 263.617H523.768V392.957H533.84V263.617Z" fill="#EBEBEB"/>
<path d="M558.138 251.277H548.066V392.957H558.138V251.277Z" fill="#EBEBEB"/>
<path d="M582.447 237.219H572.375V392.946H582.447V237.219Z" fill="#EBEBEB"/>
<path d="M606.746 218.49H596.674V392.946H606.746V218.49Z" fill="#EBEBEB"/>
<path d="M631.055 198.941H620.983V392.946H631.055V198.941Z" fill="#EBEBEB"/>
<path d="M655.354 172.88H645.282V392.946H655.354V172.88Z" fill="#EBEBEB"/>
<path d="M679.664 144.449H669.592V392.946H679.664V144.449Z" fill="#EBEBEB"/>
<path d="M51.6512 212.185C73.2207 265.759 103.909 315.192 142.355 358.289L211.904 315.116C173.455 272.015 142.763 222.578 121.189 169L51.6512 212.185Z" fill="#F6BD00"/>
<path opacity="0.4" d="M51.6399 212.173C73.2216 265.75 103.917 315.186 142.366 358.289L172.425 339.628L211.904 315.127C173.455 272.026 142.763 222.59 121.189 169.011C98.0135 183.414 74.8304 197.801 51.6399 212.173Z" fill="white"/>
<path opacity="0.2" d="M109.747 181.217C110.237 182.53 111.019 183.715 112.034 184.682C113.048 185.649 114.269 186.374 115.604 186.801C116.939 187.228 118.354 187.346 119.741 187.147C121.129 186.948 122.453 186.437 123.614 185.652C142.646 228.967 167.73 269.362 198.115 305.628C196.896 306.32 195.851 307.28 195.057 308.435C194.263 309.59 193.741 310.911 193.531 312.297C193.322 313.682 193.429 315.098 193.846 316.436C194.263 317.775 194.978 319.001 195.937 320.023L152.584 346.971C150.516 344.679 147.724 343.166 144.675 342.685C141.625 342.205 138.503 342.787 135.831 344.332C105.446 308.063 80.3619 267.664 61.3301 224.345C63.8994 222.636 65.8041 220.096 66.7259 217.151C67.6476 214.206 67.5305 211.034 66.3941 208.165V208.075L109.736 181.127L109.747 181.217ZM107.737 279.746C114.407 290.469 128.948 293.479 139.626 286.854C150.304 280.229 153.1 266.441 146.442 255.717C139.783 244.994 126.13 241.424 115.44 248.06C104.751 254.696 101.045 269.012 107.737 279.746Z" fill="black"/>
<g opacity="0.2">
<path opacity="0.2" d="M115.507 272.055L112.644 273.829C113.071 274.536 113.509 275.244 113.947 275.94L116.799 274.177C118.276 276.41 120.405 278.135 122.896 279.118L124.748 276.367C122.682 275.585 120.883 274.229 119.561 272.459L124.692 269.27C127.163 271.696 130.037 274.155 133.597 271.943C136.213 270.314 137.268 267.025 135.146 262.78L138.043 260.984C137.605 260.276 137.167 259.58 136.74 258.873L133.888 260.636C132.677 258.84 131.042 257.37 129.128 256.358L127.185 259.03C128.715 259.872 130.056 261.019 131.126 262.398L125.95 265.621C123.48 263.184 120.706 260.602 117.147 262.814C114.531 264.386 113.43 267.743 115.507 272.055ZM127.791 267.35L132.361 264.521C133.215 266.519 132.777 267.889 131.654 268.552C130.531 269.214 129.161 268.574 127.791 267.35ZM118.921 266.227C120.178 265.453 121.459 266.227 122.84 267.496L118.348 270.315C117.427 268.26 117.821 266.912 118.921 266.227Z" fill="black"/>
</g>
<path opacity="0.2" d="M51.6401 212.173C73.2218 265.75 103.917 315.186 142.366 358.289L172.425 339.628L196.285 299.329C196.285 299.329 101.124 259.894 51.6401 212.173Z" fill="black"/>
<path d="M0.000167847 287.427C44.3131 324.483 94.7105 353.583 148.957 373.437C162.588 349.804 176.227 326.172 189.874 302.54C135.629 282.703 85.2313 253.618 40.9167 216.575C27.2704 240.185 13.6315 263.802 0.000167847 287.427Z" fill="#F6BD00"/>
<path opacity="0.4" d="M0.000167847 287.427C44.3131 324.483 94.7105 353.583 148.957 373.437C162.588 349.804 176.227 326.172 189.874 302.54C135.629 282.703 85.2313 253.618 40.9167 216.575C27.2704 240.185 13.6315 263.802 0.000167847 287.427Z" fill="white"/>
<path opacity="0.2" d="M36.5936 232.699C37.6458 233.625 38.8943 234.3 40.2451 234.673C41.596 235.047 43.014 235.109 44.3923 234.855C45.7706 234.601 47.0732 234.037 48.2022 233.207C49.3312 232.376 50.257 231.301 50.9099 230.06C88.16 259.263 129.368 283.027 173.3 300.643C172.554 301.828 172.087 303.167 171.933 304.559C171.779 305.951 171.943 307.36 172.412 308.679C172.881 309.999 173.643 311.195 174.641 312.178C175.639 313.16 176.847 313.904 178.173 314.353L152.674 358.537C149.765 357.495 146.588 357.485 143.673 358.507C140.758 359.529 138.283 361.521 136.662 364.151C92.7296 346.535 51.5215 322.771 14.2714 293.569C15.7401 290.844 16.226 287.697 15.6473 284.656C15.0686 281.615 13.4607 278.867 11.0938 276.872L11.0152 276.805L36.4926 232.643L36.5936 232.699ZM81.3503 320.506C92.2981 326.805 106.525 322.594 112.79 311.703C119.055 300.811 115.036 287.348 104.088 281.049C93.1402 274.75 79.3853 278.04 73.1535 288.909C66.9217 299.778 70.3913 314.218 81.3503 320.506Z" fill="black"/>
<g opacity="0.2">
<path opacity="0.2" d="M84.5728 310.052C84.0002 311.018 83.45 311.995 82.8773 312.971L85.0332 314.218L86.7062 311.31C89.065 312.582 91.7577 313.1 94.4202 312.792C94.5325 311.669 94.6335 310.546 94.7458 309.491C92.557 309.781 90.3311 309.434 88.3344 308.491L91.3436 303.27C94.7121 304.236 98.3614 305.044 100.461 301.417C101.999 298.745 101.371 295.343 97.4968 292.603C98.0694 291.615 98.6196 290.638 99.2035 289.65L97.0589 288.404L95.3858 291.312C93.4696 290.299 91.3329 289.774 89.1653 289.785C89.0081 290.908 88.8621 291.963 88.7049 293.052C90.4447 293.076 92.1608 293.459 93.7465 294.175C92.7359 295.942 91.7216 297.701 90.7036 299.452C87.3912 298.475 83.7194 297.51 81.6197 301.137C80.0814 303.753 80.699 307.189 84.5728 310.052ZM93.1738 300.104L95.8574 295.455C97.5529 296.814 97.8112 298.195 97.1375 299.34C96.4638 300.485 94.9479 300.53 93.1738 300.104ZM84.8198 303.304C85.5609 302.024 87.0655 302.102 88.8845 302.574C87.9863 304.112 87.0992 305.662 86.2122 307.2C84.4605 305.796 84.1686 304.427 84.7749 303.304H84.8198Z" fill="black"/>
</g>
<path d="M96.6484 395.617H140.473V387.016H96.6484V395.617Z" fill="#F6BD00"/>
<path opacity="0.2" d="M96.6482 395.617H106.305V387.016H96.6482V395.617Z" fill="black"/>
<path opacity="0.2" d="M110.942 387.005H107.428V395.606H110.942V387.005Z" fill="black"/>
<path opacity="0.2" d="M115.445 387.005H113.042V395.606H115.445V387.005Z" fill="black"/>
<path opacity="0.2" d="M119.858 387.005H118.656V395.606H119.858V387.005Z" fill="black"/>
<path opacity="0.2" d="M127.122 387.005H126.516V395.606H127.122V387.005Z" fill="black"/>
<path d="M98.7144 387.061H142.539V378.46H98.7144V387.061Z" fill="#F6BD00"/>
<path opacity="0.2" d="M98.7146 387.061H108.371V378.46H98.7146V387.061Z" fill="black"/>
<path opacity="0.2" d="M113.008 378.449H109.494V387.05H113.008V378.449Z" fill="black"/>
<path opacity="0.2" d="M117.511 378.449H115.108V387.05H117.511V378.449Z" fill="black"/>
<path opacity="0.2" d="M121.924 378.449H120.722V387.05H121.924V378.449Z" fill="black"/>
<path opacity="0.2" d="M129.188 378.449H128.582V387.05H129.188V378.449Z" fill="black"/>
<path d="M94.8071 378.505H138.632V369.904H94.8071V378.505Z" fill="#F6BD00"/>
<path opacity="0.2" d="M94.8069 378.505H104.463V369.904H94.8069V378.505Z" fill="black"/>
<path opacity="0.2" d="M109.09 369.893H105.575V378.494H109.09V369.893Z" fill="black"/>
<path opacity="0.2" d="M113.592 369.893H111.189V378.494H113.592V369.893Z" fill="black"/>
<path opacity="0.2" d="M118.005 369.893H116.804V378.494H118.005V369.893Z" fill="black"/>
<path opacity="0.2" d="M125.27 369.893H124.664V378.494H125.27V369.893Z" fill="black"/>
<path d="M96.6484 369.949H140.473V361.348H96.6484V369.949Z" fill="#F6BD00"/>
<path opacity="0.2" d="M96.6482 369.949H106.305V361.348H96.6482V369.949Z" fill="black"/>
<path opacity="0.2" d="M110.942 361.337H107.428V369.938H110.942V361.337Z" fill="black"/>
<path opacity="0.2" d="M115.445 361.337H113.042V369.938H115.445V361.337Z" fill="black"/>
<path opacity="0.2" d="M119.858 361.337H118.656V369.938H119.858V361.337Z" fill="black"/>
<path opacity="0.2" d="M127.122 361.337H126.516V369.938H127.122V361.337Z" fill="black"/>
<path d="M97.7598 361.393H141.584V352.792H97.7598V361.393Z" fill="#F6BD00"/>
<path opacity="0.2" d="M97.76 361.393H107.417V352.792H97.76V361.393Z" fill="black"/>
<path opacity="0.2" d="M112.065 352.78H108.551V361.381H112.065V352.78Z" fill="black"/>
<path opacity="0.2" d="M116.567 352.78H114.165V361.381H116.567V352.78Z" fill="black"/>
<path opacity="0.2" d="M120.98 352.78H119.779V361.381H120.98V352.78Z" fill="black"/>
<path opacity="0.2" d="M128.246 352.78H127.639V361.381H128.246V352.78Z" fill="black"/>
<path d="M96.6372 352.837H140.462V344.236H96.6372V352.837Z" fill="#F6BD00"/>
<path opacity="0.2" d="M96.637 352.837H106.293V344.236H96.637V352.837Z" fill="black"/>
<path opacity="0.2" d="M110.942 344.224H107.428V352.825H110.942V344.224Z" fill="black"/>
<path opacity="0.2" d="M115.445 344.224H113.042V352.825H115.445V344.224Z" fill="black"/>
<path opacity="0.2" d="M119.858 344.224H118.656V352.825H119.858V344.224Z" fill="black"/>
<path opacity="0.2" d="M127.122 344.224H126.516V352.825H127.122V344.224Z" fill="black"/>
<path d="M96.6372 344.281H140.462V335.68H96.6372V344.281Z" fill="#F6BD00"/>
<path opacity="0.2" d="M96.637 344.281H106.293V335.68H96.637V344.281Z" fill="black"/>
<path opacity="0.2" d="M110.942 335.668H107.428V344.269H110.942V335.668Z" fill="black"/>
<path opacity="0.2" d="M115.445 335.668H113.042V344.269H115.445V335.668Z" fill="black"/>
<path opacity="0.2" d="M119.858 335.668H118.656V344.269H119.858V335.668Z" fill="black"/>
<path opacity="0.2" d="M127.122 335.668H126.516V344.269H127.122V335.668Z" fill="black"/>
<path d="M98.8828 335.724H142.708V327.124H98.8828V335.724Z" fill="#F6BD00"/>
<path opacity="0.2" d="M98.8831 335.724H108.54V327.124H98.8831V335.724Z" fill="black"/>
<path opacity="0.2" d="M113.188 327.112H109.673V335.713H113.188V327.112Z" fill="black"/>
<path opacity="0.2" d="M117.69 327.112H115.288V335.713H117.69V327.112Z" fill="black"/>
<path opacity="0.2" d="M122.103 327.112H120.902V335.713H122.103V327.112Z" fill="black"/>
<path opacity="0.2" d="M129.368 327.112H128.762V335.713H129.368V327.112Z" fill="black"/>
<path d="M96.6372 327.168H140.462V318.567H96.6372V327.168Z" fill="#F6BD00"/>
<path opacity="0.2" d="M96.637 327.168H106.293V318.567H96.637V327.168Z" fill="black"/>
<path opacity="0.2" d="M110.942 318.556H107.428V327.157H110.942V318.556Z" fill="black"/>
<path opacity="0.2" d="M115.445 318.556H113.042V327.157H115.445V318.556Z" fill="black"/>
<path opacity="0.2" d="M119.858 318.556H118.656V327.157H119.858V318.556Z" fill="black"/>
<path opacity="0.2" d="M127.122 318.556H126.516V327.157H127.122V318.556Z" fill="black"/>
<path d="M94.3916 318.612H138.216V310.011H94.3916V318.612Z" fill="#F6BD00"/>
<path opacity="0.2" d="M94.3914 318.612H104.048V310.011H94.3914V318.612Z" fill="black"/>
<path opacity="0.2" d="M108.697 310H105.182V318.601H108.697V310Z" fill="black"/>
<path opacity="0.2" d="M113.199 310H110.796V318.601H113.199V310Z" fill="black"/>
<path opacity="0.2" d="M117.612 310H116.411V318.601H117.612V310Z" fill="black"/>
<path opacity="0.2" d="M124.877 310H124.271V318.601H124.877V310Z" fill="black"/>
<path d="M58 395.617H101.825V387.016H58V395.617Z" fill="#F6BD00"/>
<path opacity="0.2" d="M57.9998 395.617H67.6562V387.016H57.9998V395.617Z" fill="black"/>
<path opacity="0.2" d="M72.2825 387.005H68.7681V395.606H72.2825V387.005Z" fill="black"/>
<path opacity="0.2" d="M76.7852 387.005H74.3823V395.606H76.7852V387.005Z" fill="black"/>
<path opacity="0.2" d="M81.198 387.005H79.9966V395.606H81.198V387.005Z" fill="black"/>
<path opacity="0.2" d="M88.4628 387.005H87.8564V395.606H88.4628V387.005Z" fill="black"/>
<path d="M60.2456 387.061H104.07V378.46H60.2456V387.061Z" fill="#F6BD00"/>
<path opacity="0.2" d="M60.2459 387.061H69.9023V378.46H60.2459V387.061Z" fill="black"/>
<path opacity="0.2" d="M74.5282 378.449H71.0137V387.05H74.5282V378.449Z" fill="black"/>
<path opacity="0.2" d="M79.0308 378.449H76.6279V387.05H79.0308V378.449Z" fill="black"/>
<path opacity="0.2" d="M83.4436 378.449H82.2422V387.05H83.4436V378.449Z" fill="black"/>
<path opacity="0.2" d="M90.7084 378.449H90.1021V387.05H90.7084V378.449Z" fill="black"/>
<path d="M58 378.505H101.825V369.904H58V378.505Z" fill="#F6BD00"/>
<path opacity="0.2" d="M57.9998 378.505H67.6562V369.904H57.9998V378.505Z" fill="black"/>
<path opacity="0.2" d="M72.2825 369.893H68.7681V378.494H72.2825V369.893Z" fill="black"/>
<path opacity="0.2" d="M76.7852 369.893H74.3823V378.494H76.7852V369.893Z" fill="black"/>
<path opacity="0.2" d="M81.198 369.893H79.9966V378.494H81.198V369.893Z" fill="black"/>
<path opacity="0.2" d="M88.4628 369.893H87.8564V378.494H88.4628V369.893Z" fill="black"/>
<path d="M59.1231 369.949H102.948V361.348H59.1231V369.949Z" fill="#F6BD00"/>
<path opacity="0.2" d="M59.1228 369.949H68.7793V361.348H59.1228V369.949Z" fill="black"/>
<path opacity="0.2" d="M73.4056 361.337H69.8911V369.938H73.4056V361.337Z" fill="black"/>
<path opacity="0.2" d="M77.9082 361.337H75.5054V369.938H77.9082V361.337Z" fill="black"/>
<path opacity="0.2" d="M82.321 361.337H81.1196V369.938H82.321V361.337Z" fill="black"/>
<path opacity="0.2" d="M89.5858 361.337H88.9795V369.938H89.5858V361.337Z" fill="black"/>
<path d="M58 361.393H101.825V352.792H58V361.393Z" fill="#F6BD00"/>
<path opacity="0.2" d="M57.9998 361.393H67.6562V352.792H57.9998V361.393Z" fill="black"/>
<path opacity="0.2" d="M72.2938 352.78H68.7793V361.381H72.2938V352.78Z" fill="black"/>
<path opacity="0.2" d="M76.7965 352.78H74.3936V361.381H76.7965V352.78Z" fill="black"/>
<path opacity="0.2" d="M81.2093 352.78H80.0078V361.381H81.2093V352.78Z" fill="black"/>
<path opacity="0.2" d="M88.474 352.78H87.8677V361.381H88.474V352.78Z" fill="black"/>
<path d="M61.3687 352.837H105.193V344.236H61.3687V352.837Z" fill="#F6BD00"/>
<path opacity="0.2" d="M61.3684 352.837H71.0249V344.236H61.3684V352.837Z" fill="black"/>
<path opacity="0.2" d="M75.6625 344.224H72.1479V352.825H75.6625V344.224Z" fill="black"/>
<path opacity="0.2" d="M80.1651 344.224H77.7622V352.825H80.1651V344.224Z" fill="black"/>
<path opacity="0.2" d="M84.5779 344.224H83.3765V352.825H84.5779V344.224Z" fill="black"/>
<path opacity="0.2" d="M91.8427 344.224H91.2363V352.825H91.8427V344.224Z" fill="black"/>
</svg>
