<svg width="337" height="333" viewBox="0 0 337 333" fill="none" xmlns="http://www.w3.org/2000/svg">
<path opacity="0.8" d="M300.104 167.884C300.104 167.884 302.248 131.225 271.455 109.999C240.662 88.7733 209.222 114.443 178.275 112.725C162.083 111.837 144.382 85.6668 129.115 81.4595C80.3034 68.0338 31.395 114.239 31.1315 154.473C30.8847 189.308 50.2723 217.322 90.5256 241.938C130.779 266.554 158.138 285.343 211.56 278.187C264.981 271.03 295.039 214.95 300.104 167.884Z" fill="#FFF5E6"/>
<path fill-rule="evenodd" clip-rule="evenodd" d="M142.223 70.4166C137.872 72.3934 136.057 77.6038 138.246 81.8371C139.811 84.8645 142.426 86.5489 145.543 86.5375C149.104 86.5248 151.223 85.4119 153.186 82.5224C156.332 77.8922 153.68 71.395 147.999 69.817C145.033 68.9926 145.454 68.9491 142.223 70.4166ZM211.676 70.1905C209.935 71.4097 209.756 73.3042 211.24 74.7892C212.646 76.1951 213.93 76.1142 215.526 74.5175C216.949 73.0941 216.747 71.405 214.986 69.985C213.665 68.9203 213.471 68.9324 211.676 70.1905ZM149.3 75.1713C151.009 76.8811 150.995 78.552 149.251 80.7691C147.506 82.9875 144.548 83.1213 142.635 81.0675C141.004 79.3176 140.894 77.3455 142.312 75.3205C143.674 73.3758 147.425 73.2962 149.3 75.1713ZM188.777 79.7834C188.777 80.5784 188.149 81.2067 187.088 81.4731C184.467 82.1309 182.755 84.2496 182.755 86.8347C182.755 89.4492 183.909 90.8578 187.171 92.2203C188.679 92.8507 189.446 93.6209 189.446 94.5043C189.446 96.4369 188.471 96.7554 185.872 95.6693C183.652 94.7412 183.554 94.7653 182.798 96.4242C181.926 98.3374 182.443 98.9712 185.432 99.6584C188.501 100.364 188.777 100.551 188.777 101.918C188.777 102.68 189.218 103.277 189.781 103.277C190.333 103.277 190.784 102.699 190.784 101.991C190.784 101.113 191.53 100.458 193.132 99.9294C195.849 99.0327 196.806 97.5893 196.806 94.3912C196.806 91.8529 195.545 90.4128 192.457 89.4271C190.854 88.9158 190.407 88.3537 190.238 86.6359L190.026 84.4851L192.302 85.436C194.386 86.3067 194.643 86.2819 195.358 85.1376C196.598 83.1507 196.308 82.6375 193.461 81.7842C191.597 81.2255 190.784 80.6078 190.784 79.7499C190.784 79.072 190.333 78.5172 189.781 78.5172C189.229 78.5172 188.777 79.0867 188.777 79.7834ZM189.446 86.587C189.446 87.9589 187.819 88.3725 187.086 87.1873C186.552 86.3234 188.038 84.4175 188.853 84.9214C189.179 85.1229 189.446 85.8723 189.446 86.587ZM93.8972 86.0122C92.8648 87.0448 92.8648 89.3963 93.8972 90.4289C95.774 92.306 99.1163 90.892 99.1163 88.2205C99.1163 86.4271 97.8985 85.2092 96.1053 85.2092C95.3324 85.2092 94.3388 85.5705 93.8972 86.0122ZM191.937 93.9903C192.87 94.9239 192.301 96.5855 191.047 96.5855C190.499 96.5855 190.115 95.8962 190.115 94.9125C190.115 93.1104 190.74 92.7938 191.937 93.9903ZM210.735 106.417C210.572 107.804 210.035 108.345 208.404 108.764C205.354 109.549 202.828 112.819 202.828 115.984C202.828 118.039 203.247 118.902 204.929 120.318C206.084 121.29 207.891 122.258 208.944 122.469C210.661 122.812 210.858 123.122 210.858 125.489C210.858 127.917 210.737 128.09 209.352 127.664C208.524 127.408 207.028 126.782 206.027 126.274C204.296 125.393 204.158 125.444 203.184 127.329C202.62 128.418 202.159 129.467 202.159 129.66C202.159 130.301 205.85 131.932 208.372 132.405C210.559 132.815 210.858 133.103 210.858 134.804C210.858 136.076 211.201 136.737 211.861 136.737C212.522 136.737 212.865 136.076 212.865 134.804C212.865 133.131 213.175 132.813 215.167 132.439C218.301 131.851 220.894 128.69 220.894 125.459C220.894 122.036 219.459 120.304 215.541 119.003C212.396 117.958 212.196 117.755 212.196 115.604C212.196 113.018 213.105 112.713 216.138 114.282C217.96 115.224 218.033 115.191 219.103 112.947L220.2 110.646L217.789 109.639C216.463 109.084 214.813 108.631 214.122 108.631C213.172 108.631 212.865 108.141 212.865 106.623C212.865 104.054 211.034 103.876 210.735 106.417ZM248.997 105.954C248.261 106.69 247.659 107.594 247.659 107.962C247.659 108.941 250.188 111.308 251.235 111.308C252.432 111.308 254.35 109.135 254.35 107.78C254.35 106.759 251.983 104.616 250.855 104.616C250.569 104.616 249.733 105.218 248.997 105.954ZM153.546 106.648C139.021 109.237 127.282 119.96 123.529 134.066C122.219 138.989 122.257 148.932 123.603 153.512C127.422 166.508 138.148 176.914 150.798 179.896C156.143 181.157 163.199 181.157 168.543 179.896C181.278 176.893 191.998 166.435 195.785 153.318C197.092 148.791 197.253 139.81 196.111 135.064C193.017 122.2 182.795 111.424 170.17 107.716C165.563 106.362 157.908 105.871 153.546 106.648ZM168.353 111.434C178.686 114.059 188.185 123.3 191.464 133.915C192.936 138.684 193.205 146.511 192.066 151.459C188.773 165.757 174.592 176.889 159.671 176.889C144.782 176.889 130.561 165.727 127.276 151.459C125.315 142.942 127.057 132.94 131.774 125.642C139.615 113.508 154.208 107.84 168.353 111.434ZM210.858 115.323C210.858 117.519 210.14 117.881 208.858 116.335C207.849 115.12 208.432 113.315 209.833 113.315C210.525 113.315 210.858 113.966 210.858 115.323ZM88.0619 120.622C82.6722 121.933 79.344 126.65 79.8793 132.221C80.624 139.971 88.276 144.219 95.3351 140.801C106.715 135.292 100.351 117.636 88.0619 120.622ZM214.538 126.03C214.538 127.074 214.106 127.768 213.367 127.91C212.452 128.086 212.196 127.676 212.196 126.03C212.196 124.384 212.452 123.974 213.367 124.15C214.106 124.292 214.538 124.986 214.538 126.03ZM95.1531 126.648C98.4445 129.94 97.7212 135.025 93.6623 137.124C90.822 138.593 87.5955 137.887 85.4396 135.324C83.4905 133.008 83.2797 130.843 84.7304 128.038C86.0184 125.547 87.4563 124.737 90.6366 124.712C92.5911 124.696 93.6603 125.155 95.1531 126.648ZM138.986 127.483C135.258 131.839 133.674 136.655 133.621 143.798C133.578 149.477 133.73 150.169 136.045 154.854C138.985 160.803 141.463 163.464 143.1 162.431C144.869 161.315 144.778 160.545 142.546 157.764C139.047 153.405 137.725 149.71 137.654 144.098C137.579 138.231 138.908 134.167 142.392 129.602C146.334 124.436 143.241 122.511 138.986 127.483ZM174.993 125.629C174.795 126.145 175.676 127.933 176.95 129.602C180.326 134.025 181.755 138.256 181.733 143.764C181.709 149.529 180.737 152.456 177.345 156.971C174.583 160.647 174.451 161.302 176.241 162.431C177.879 163.464 180.356 160.803 183.296 154.854C185.61 150.172 185.763 149.473 185.725 143.798C185.677 136.89 184.313 132.578 180.631 127.688C178.358 124.67 175.729 123.71 174.993 125.629ZM159.113 127.815C158.868 128.06 158.667 128.963 158.667 129.822C158.667 130.962 158.288 131.384 157.262 131.384C156.489 131.384 154.833 132.407 153.582 133.659C149.362 137.879 150.943 143.516 156.817 145.191C158.719 145.733 159.028 146.135 159.209 148.302C159.451 151.197 158.94 151.341 154.909 149.51L152.155 148.259L151.057 150.561L149.959 152.862L152.341 153.858C153.651 154.405 155.611 155.03 156.695 155.248C158.33 155.574 158.667 155.971 158.667 157.566C158.667 160.079 160.507 160.17 160.798 157.671C160.97 156.194 161.467 155.744 163.449 155.278C166.626 154.532 168.729 152.225 169.157 149.015C169.6 145.694 167.795 143.29 163.678 141.718C160.914 140.662 160.674 140.384 160.674 138.241C160.674 135.76 160.796 135.729 165.14 137.082C166.307 137.446 166.802 137.135 167.64 135.515L168.684 133.495L165.516 132.365C163.773 131.744 161.971 131.128 161.511 130.996C161.051 130.864 160.674 129.994 160.674 129.062C160.674 127.419 160.026 126.901 159.113 127.815ZM242.392 133.139C229.306 139.661 234.005 159.585 248.629 159.585C254.734 159.585 259.267 156.717 261.727 151.295C264.188 145.873 263.071 139.93 258.788 135.645C254.234 131.09 248.317 130.186 242.392 133.139ZM252.563 136.312C257.683 138.452 260.035 143.961 258.047 149.164C254.11 159.474 238.972 156.464 238.963 145.368C238.957 138.295 246.033 133.583 252.563 136.312ZM159.336 138.076C159.336 140.246 159.298 140.283 157.718 139.677C156.652 139.267 156.279 137.341 157.106 136.514C158.216 135.403 159.336 136.188 159.336 138.076ZM163.016 148.783C163.016 149.827 162.584 150.521 161.845 150.663C160.931 150.839 160.674 150.428 160.674 148.783C160.674 147.137 160.931 146.726 161.845 146.902C162.584 147.045 163.016 147.739 163.016 148.783ZM72.1845 156.197C70.489 157.185 70.6496 160.586 72.4361 161.543C75.7536 163.318 78.6629 159.205 75.9844 156.526C74.7747 155.317 73.8366 155.235 72.1845 156.197ZM244.574 171.475C242.687 172.333 235.878 178.738 222.862 191.903L203.9 211.082L203.146 208.526C202.021 204.716 200.294 202.457 197.051 200.557C194.368 198.984 192.052 198.624 167.538 195.954C152.907 194.361 133.451 192.24 124.303 191.24L107.67 189.423L90.3456 206.74C79.0597 218.021 73.0209 224.531 73.0209 225.417C73.0209 226.305 79.3514 233.092 91.2823 244.995C101.326 255.016 109.826 263.215 110.171 263.215C110.517 263.215 113.374 260.652 116.52 257.52L122.24 251.826L147.981 252.834C162.138 253.39 180.045 254.026 187.773 254.25L201.825 254.656L232.408 223.97C253.28 203.027 263.319 192.494 264.023 190.796C265.41 187.455 265.307 181.857 263.798 178.534C260.608 171.511 251.698 168.239 244.574 171.475ZM255.74 175.734C260.579 178.994 262.468 184.976 260.081 189.47C259.553 190.463 245.729 204.649 229.361 220.994L199.601 250.711L186.996 250.248C180.063 249.995 162.654 249.338 148.309 248.79L122.225 247.795L112.029 237.673C103.334 229.042 101.681 227.676 100.808 228.401C100.246 228.868 99.7854 229.586 99.7854 229.996C99.7854 230.406 104.072 235.038 109.313 240.288L118.84 249.833L114.664 254.009L110.49 258.184L94.0952 241.798L77.7014 225.412L93.5941 209.539L109.487 193.665L150.972 198.217C181.909 201.611 193.018 203.06 194.661 203.914C201.149 207.286 201.072 217.209 194.531 220.732C192.305 221.931 191.379 221.94 168.252 220.973C155.068 220.421 143.928 220.087 143.496 220.23C143.065 220.373 142.566 220.87 142.388 221.335C141.479 223.703 142.75 223.882 167.791 224.93C191.844 225.936 192.525 225.93 195.211 224.68C197.138 223.783 204.806 216.35 220.767 199.91C233.308 186.992 244.565 175.932 245.781 175.333C248.99 173.752 253.042 173.914 255.74 175.734Z" fill="#F6BD00"/>
<path d="M95.1531 126.648C98.4445 129.94 97.7212 135.025 93.6623 137.124C90.822 138.593 87.5955 137.887 85.4396 135.324C83.4905 133.008 83.2797 130.843 84.7304 128.038C86.0184 125.547 87.4563 124.737 90.6366 124.712C92.5911 124.696 93.6603 125.155 95.1531 126.648Z" fill="#FFEDB2"/>
<path d="M149.3 75.1713C151.009 76.8811 150.995 78.552 149.251 80.7691C147.506 82.9875 144.548 83.1213 142.635 81.0675C141.004 79.3176 140.894 77.3455 142.312 75.3205C143.674 73.3758 147.425 73.2962 149.3 75.1713Z" fill="#FFEDB2"/>
<path d="M252.563 136.312C257.683 138.452 260.035 143.961 258.047 149.164C254.11 159.474 238.972 156.464 238.963 145.368C238.957 138.295 246.033 133.583 252.563 136.312Z" fill="#FFEDB2"/>
<path fill-rule="evenodd" clip-rule="evenodd" d="M168.353 111.434C178.686 114.059 188.185 123.3 191.464 133.915C192.936 138.684 193.205 146.511 192.066 151.459C188.773 165.757 174.592 176.889 159.671 176.889C144.782 176.889 130.561 165.727 127.276 151.459C125.315 142.942 127.057 132.94 131.774 125.642C139.615 113.508 154.208 107.84 168.353 111.434ZM133.621 143.798C133.674 136.655 135.258 131.839 138.986 127.483C143.241 122.511 146.334 124.436 142.392 129.602C138.908 134.167 137.579 138.231 137.654 144.098C137.725 149.71 139.047 153.405 142.546 157.764C144.778 160.545 144.869 161.315 143.1 162.431C141.463 163.464 138.985 160.803 136.045 154.854C133.73 150.169 133.578 149.477 133.621 143.798ZM176.95 129.602C175.676 127.933 174.795 126.145 174.993 125.629C175.729 123.71 178.358 124.67 180.631 127.688C184.313 132.578 185.677 136.89 185.725 143.798C185.763 149.473 185.61 150.172 183.296 154.854C180.356 160.803 177.879 163.464 176.241 162.431C174.451 161.302 174.583 160.647 177.345 156.971C180.737 152.456 181.709 149.529 181.733 143.764C181.755 138.256 180.326 134.025 176.95 129.602ZM158.667 129.822C158.667 128.963 158.868 128.06 159.113 127.815C160.026 126.901 160.674 127.419 160.674 129.062C160.674 129.994 161.051 130.864 161.511 130.996C161.971 131.128 163.773 131.744 165.516 132.365L168.684 133.495L167.64 135.515C166.802 137.135 166.307 137.446 165.14 137.082C160.796 135.729 160.674 135.76 160.674 138.241C160.674 140.384 160.914 140.662 163.678 141.718C167.795 143.29 169.6 145.694 169.157 149.015C168.729 152.225 166.626 154.532 163.449 155.278C161.467 155.744 160.97 156.194 160.798 157.671C160.507 160.17 158.667 160.079 158.667 157.566C158.667 155.971 158.33 155.574 156.695 155.248C155.611 155.03 153.651 154.405 152.341 153.858L149.959 152.862L151.057 150.561L152.155 148.259L154.909 149.51C158.94 151.341 159.451 151.197 159.209 148.302C159.028 146.135 158.719 145.733 156.817 145.191C150.943 143.516 149.362 137.879 153.582 133.659C154.833 132.407 156.489 131.384 157.262 131.384C158.288 131.384 158.667 130.962 158.667 129.822Z" fill="#FFEDB2"/>
</svg>
