<svg width="337" height="333" viewBox="0 0 337 332" fill="none" xmlns="http://www.w3.org/2000/svg">
<path opacity="0.8" d="M36.8957 166.918C36.8957 166.918 34.7521 130.258 65.5453 109.033C96.3384 87.807 127.778 113.476 158.725 111.759C174.917 110.871 192.618 84.7004 207.885 80.4932C256.697 67.0675 305.605 113.273 305.868 153.506C306.115 188.342 286.728 216.356 246.474 240.972C206.221 265.588 178.862 284.377 125.44 277.221C72.0187 270.064 41.9606 213.983 36.8957 166.918Z" fill="#FFF5E6"/>
<path fill-rule="evenodd" clip-rule="evenodd" d="M108.391 109.928C104.143 110.924 98.8432 114.007 95.2934 117.547C88.4581 124.362 85.4565 134.069 87.3514 143.23C88.6913 149.711 90.6894 153.427 95.3402 158.088C106.858 169.632 124.288 169.747 135.733 158.356C141.681 152.434 144.336 146.039 144.286 137.752C144.207 124.667 135.575 113.411 123.067 110.08C119.835 109.22 111.767 109.136 108.391 109.928ZM123.205 114.682C127.342 115.91 132.529 119.636 135.099 123.225C139.573 129.473 140.98 136.066 139.377 143.271C137.713 150.753 132.79 156.805 125.598 160.212C122.119 161.861 121.447 161.981 115.668 161.981C109.87 161.981 109.225 161.865 105.682 160.186C94.5722 154.923 88.9917 143.208 92.0321 131.531C94.9238 120.427 105.851 112.637 117.205 113.588C118.98 113.736 121.68 114.229 123.205 114.682ZM177.715 129.081C174.047 129.942 169.098 132.942 166.082 136.13C160.882 141.629 158.569 148.985 159.794 156.13C161.96 168.757 172.319 176.982 185.123 176.24C194.869 175.676 203.308 169.042 206.384 159.527C207.116 157.265 207.302 155.203 207.131 151.281C206.927 146.626 206.671 145.585 204.803 141.805C202.574 137.293 198.744 133.267 194.74 131.224C189.88 128.744 182.895 127.865 177.715 129.081ZM191.553 134.564C197.461 137.424 201.35 142.509 202.769 149.227C204.554 157.68 198.898 167.549 190.44 170.738C185.858 172.465 178.897 172.118 174.671 169.95C170.728 167.926 167.448 164.559 165.618 160.655C164.35 157.952 164.126 156.709 164.126 152.402C164.126 147.991 164.331 146.913 165.7 144.125C167.658 140.138 172.398 135.7 176.385 134.124C180.444 132.518 187.765 132.731 191.553 134.564ZM232.239 148.408C228.576 149.297 224.783 151.514 222.524 154.087C213.438 164.435 217.468 180.171 230.459 185.067C234.171 186.466 241.437 186.07 244.982 184.276C248.428 182.532 252.101 178.902 253.859 175.504C255.741 171.866 256.271 164.791 254.952 160.919C252.867 154.799 247.771 150.142 241.342 148.48C237.428 147.469 236.15 147.459 232.239 148.408ZM243.912 154.176C252.365 158.772 254.069 170.141 247.349 177.099C243.596 180.985 238.997 182.458 233.913 181.403C222.321 178.996 218.035 164.927 226.359 156.603C231.125 151.837 237.89 150.902 243.912 154.176ZM106.653 177.848C91.7853 181.027 79.2861 192.091 74.6099 206.212C72.7404 211.859 72 217.702 72 226.819V234.385L108.343 234.438C128.332 234.467 162.182 234.492 183.565 234.492C204.948 234.492 232.244 234.467 244.222 234.438L266 234.385L265.679 227.18C265.295 218.536 264.099 214.388 260.417 208.931C251.232 195.317 232.916 192.247 219.556 202.083C216.757 204.143 215.987 204.483 215.617 203.822C213.254 199.6 205.788 193.108 200.261 190.471C194.345 187.647 190.255 186.787 183.001 186.842C177.621 186.883 175.757 187.141 172.014 188.367C166.528 190.163 161.387 193.143 157.184 196.962L154.031 199.827L151.82 196.399C147.396 189.542 139.656 183.189 131.87 180.025C124.445 177.009 114.566 176.156 106.653 177.848ZM125.216 182.539C137.76 185.747 148.532 195.702 152.558 207.806C154.051 212.297 154.789 217.908 154.811 224.947L154.828 230.441H115.593H76.3567L76.6457 221.848C76.9725 212.129 78.1006 207.545 81.7912 200.945C90.149 186.001 108.439 178.248 125.216 182.539ZM191.681 192.112C198.206 193.781 202.36 196.216 207.518 201.397C214.484 208.393 217.372 215.404 217.372 225.315V230.451L188.213 230.305L159.054 230.159L158.707 220.862C158.442 213.806 158.085 210.722 157.224 208.067L156.088 204.569L158.044 202.284C161.983 197.683 170.54 192.814 176.803 191.61C181.271 190.751 187.133 190.949 191.681 192.112ZM245.117 202.257C251.575 204.683 257.217 210.325 259.642 216.783C260.405 218.813 260.975 221.956 261.173 225.229L261.488 230.441H241.755H222.022L221.745 224.102C221.536 219.313 221.104 216.661 219.977 213.255L218.486 208.748L220.605 206.863C227.164 201.033 236.959 199.192 245.117 202.257Z" fill="#F6BD00"/>
<path d="M125.216 182.539C137.76 185.747 148.532 195.702 152.558 207.806C154.051 212.297 154.789 217.908 154.811 224.947L154.828 230.441H115.593H76.3567L76.6457 221.848C76.9725 212.129 78.1006 207.545 81.7912 200.945C90.149 186.001 108.439 178.248 125.216 182.539Z" fill="#FFD650" fill-opacity="0.8"/>
<path d="M191.681 192.112C198.206 193.781 202.36 196.216 207.518 201.397C214.484 208.393 217.372 215.404 217.372 225.315V230.451L188.213 230.305L159.054 230.159L158.707 220.862C158.442 213.806 158.085 210.722 157.224 208.067L156.088 204.569L158.044 202.284C161.983 197.683 170.54 192.814 176.803 191.61C181.271 190.751 187.133 190.949 191.681 192.112Z" fill="#F8D974" fill-opacity="0.8"/>
<path d="M245.117 202.257C251.575 204.683 257.217 210.325 259.642 216.783C260.405 218.813 260.975 221.956 261.173 225.229L261.488 230.441H241.755H222.022L221.745 224.102C221.536 219.313 221.104 216.661 219.977 213.255L218.486 208.748L220.605 206.863C227.164 201.033 236.959 199.192 245.117 202.257Z" fill="#FFEDB2"/>
</svg>
