<svg width="337" height="333" viewBox="0 0 255 219" fill="none" xmlns="http://www.w3.org/2000/svg">
<path opacity="0.8" d="M230.431 26.7944C230.431 26.7944 208.827 -2.90092 171.559 0.231467C134.29 3.36385 126.277 43.1524 101.268 61.4608C88.1885 71.0484 57.9026 62.0518 43.4323 68.4873C-2.81367 89.081 -11.299 155.826 14.0257 187.091C35.9379 214.173 68.6979 223.524 115.429 217.01C162.161 210.495 195.229 207.659 231.979 168.231C268.729 128.804 256.379 66.3859 230.431 26.7944Z" fill="#FFF5E6"/>
<path fill-rule="evenodd" clip-rule="evenodd" d="M204.019 20.7245C199.784 22.0668 196.549 26.4191 196.549 30.7733C196.549 35.453 200.652 40.1535 205.282 40.778C214.407 42.0092 220.355 31.5782 214.673 24.3111C212.335 21.3206 207.389 19.6553 204.019 20.7245ZM58.0334 24.0833C56.7739 27.3495 61.634 30.0536 63.0684 26.8852C64.0916 24.6264 62.8785 22.6641 60.4597 22.6641C59.0911 22.6641 58.4315 23.0495 58.0334 24.0833ZM211.228 26.3913C214.208 29.5218 213.428 34.2943 209.61 36.2806C204.276 39.0553 198.438 33.1835 201.195 27.8181C202.472 25.3354 203.774 24.5993 206.933 24.5753C208.942 24.5602 209.85 24.9443 211.228 26.3913ZM211.954 58.9782C210.799 60.1407 210.736 60.7866 211.618 62.4443C212.927 64.9056 217.238 63.4889 217.238 60.5968C217.238 59.5604 215.348 57.9873 214.104 57.9873C213.463 57.9873 212.496 58.4332 211.954 58.9782ZM37.6182 61.3676C35.7668 64.2105 38.6081 67.1265 41.4218 65.2714C43.235 64.0761 43.3836 62.3648 41.8005 60.9235C40.2018 59.4677 38.7554 59.6216 37.6182 61.3676ZM35.7486 127.766C33.5875 129.941 36.1267 133.511 39.0288 132.379C40.0307 131.987 40.4394 131.311 40.4394 130.042C40.4394 126.932 37.8338 125.668 35.7486 127.766ZM216.11 131.914C214.351 133.683 215.676 136.834 218.179 136.834C219.859 136.834 221 135.686 221 133.995C221 132.305 219.859 131.157 218.179 131.157C217.455 131.157 216.524 131.497 216.11 131.914ZM40.3642 160.042C35.8289 162.426 33.3769 166.351 33.0333 171.776C32.4966 180.257 38.5022 186.728 46.971 186.796C55.0423 186.86 61.2202 180.813 61.2954 172.773C61.4008 161.569 50.3025 154.819 40.3642 160.042ZM52.8473 163.754C55.8893 166.02 57.367 168.871 57.367 172.472C57.367 182.872 44.5622 186.76 38.3028 178.261C36.2527 175.477 36.4439 169.311 38.6714 166.373C39.5949 165.155 41.2877 163.677 42.4331 163.089C45.1798 161.68 50.5232 162.022 52.8473 163.754ZM189.384 163.055C186.909 165.546 189.387 169.271 192.553 167.82C194.463 166.944 194.639 163.692 192.829 162.717C191.181 161.83 190.539 161.894 189.384 163.055Z" fill="#F6BD00"/>
<path d="M211.228 26.3913C214.208 29.5218 213.428 34.2943 209.61 36.2806C204.276 39.0553 198.438 33.1835 201.195 27.8181C202.472 25.3354 203.774 24.5993 206.933 24.5753C208.942 24.5602 209.85 24.9443 211.228 26.3913Z" fill="#FFEDB2"/>
<path d="M52.8473 163.754C55.8893 166.02 57.367 168.871 57.367 172.472C57.367 182.872 44.5622 186.76 38.3028 178.261C36.2527 175.477 36.4439 169.311 38.6714 166.373C39.5949 165.155 41.2877 163.677 42.4331 163.089C45.1798 161.68 50.5232 162.022 52.8473 163.754Z" fill="#FFEDB2"/>
<path fill-rule="evenodd" clip-rule="evenodd" d="M56.2764 49.6454C55.4962 49.9841 54.2687 51.031 53.5485 51.9723L52.2396 53.6839L52.1196 101.137L52 148.591L53.0398 150.129C53.6117 150.976 54.7702 152.133 55.614 152.699L57.148 153.73H82.7414C97.783 153.73 108.441 153.902 108.593 154.147C108.83 154.529 107.719 166.228 107.223 168.579C107.014 169.568 106.84 169.599 101.616 169.599C95.8044 169.599 94.9905 169.902 95.2824 171.955L95.4311 173H126.12H156.808L156.957 171.955C157.249 169.902 156.435 169.599 150.624 169.599C145.4 169.599 145.225 169.568 145.017 168.579C144.52 166.228 143.41 154.529 143.647 154.147C143.798 153.902 154.457 153.73 169.498 153.73H195.092L196.595 152.71C197.421 152.149 198.526 151.114 199.049 150.41C200 149.13 200 149.119 200 101.407V53.6839L198.775 52.0829C196.219 48.7408 202.162 48.992 126.051 49.0115C69.4889 49.0265 57.4508 49.1358 56.2764 49.6454ZM195.474 53.7342L196.59 54.8468V92.727V130.607H126.12H55.6495V92.727V54.8468L56.7656 53.7342L57.8813 52.6211H126.12H194.358L195.474 53.7342ZM196.59 141.055C196.59 147.694 196.56 147.907 195.474 148.99L194.358 150.103H126.12H57.8813L56.7656 148.99C55.6795 147.907 55.6495 147.694 55.6495 141.055V134.234H126.12H196.59V141.055ZM139.759 153.979C139.759 154.564 141.157 166.785 141.377 168.126L141.619 169.599H126.12H110.62L110.863 168.126C111.083 166.785 112.48 154.564 112.48 153.979C112.48 153.842 118.618 153.73 126.12 153.73C133.621 153.73 139.759 153.842 139.759 153.979Z" fill="#F6BD00"/>
<path d="M196.59 141.055C196.59 147.694 196.56 147.907 195.474 148.99L194.358 150.103H126.12H57.8813L56.7656 148.99C55.6795 147.907 55.6495 147.694 55.6495 141.055V134.234H126.12H196.59V141.055Z" fill="#FFEDB2"/>
<path d="M139.759 153.979C139.759 154.564 141.157 166.785 141.377 168.126L141.619 169.599H126.12H110.62L110.863 168.126C111.083 166.785 112.48 154.564 112.48 153.979C112.48 153.842 118.618 153.73 126.12 153.73C133.621 153.73 139.759 153.842 139.759 153.979Z" fill="#FFEDB2"/>
<path d="M195.474 53.7342L196.59 54.8468V92.727V130.607H126.12H55.6495V92.727V54.8468L56.7656 53.7342L57.8813 52.6211H126.12H194.358L195.474 53.7342Z" fill="white"/>
<path fill-rule="evenodd" clip-rule="evenodd" d="M154.22 143.471C153.88 143.59 153.318 143.93 152.972 144.226C151.773 145.255 151.976 143.804 150.035 165.233C148.349 183.853 148.306 184.405 148.525 184.972C148.822 185.745 149.515 186.562 150.206 186.958C150.737 187.261 151.333 187.331 161.397 188.262C171.461 189.193 172.059 189.234 172.637 189.033C173.389 188.771 174.22 188.095 174.654 187.39C174.973 186.871 175.028 186.359 176.774 167.485C178.521 148.611 178.561 148.098 178.342 147.529C178.045 146.756 177.352 145.939 176.661 145.543C176.13 145.24 175.534 145.171 165.47 144.24C155.346 143.303 154.811 143.266 154.22 143.471ZM176.325 146.701C177.179 147.318 177.491 148.08 177.379 149.284L177.292 150.23L165.021 149.094L152.75 147.959L152.838 147.013C152.972 145.562 153.709 144.702 155.058 144.421C155.279 144.375 160.017 144.771 165.588 145.3L175.716 146.263L176.325 146.701ZM164.804 146.832C164.426 147.211 164.837 147.884 165.357 147.738C165.894 147.586 165.804 146.715 165.246 146.664C165.108 146.651 164.909 146.727 164.804 146.832ZM175.704 167.386L174.223 183.399L161.952 182.263L149.681 181.128L151.163 165.115L152.644 149.103L164.915 150.238L177.186 151.373L175.704 167.386ZM182.39 157.652C182.035 157.947 182.158 158.325 182.9 159.221C186.518 163.592 186.485 170.625 182.823 175.177C182.47 175.617 181.74 176.349 181.203 176.803C180.665 177.257 180.22 177.684 180.214 177.752C180.195 177.952 180.591 178.364 180.821 178.386C181.193 178.42 182.718 177.096 183.692 175.893C184.673 174.683 185.508 173.159 186.072 171.552C186.533 170.24 186.872 166.567 186.66 165.193C186.262 162.611 185.123 159.992 183.685 158.352C182.944 157.508 182.713 157.383 182.39 157.652ZM179.66 160.715C179.325 160.995 179.423 161.275 180.192 162.243C181.502 163.89 182.042 165.763 181.84 167.954C181.637 170.144 180.762 171.887 179.172 173.265C178.666 173.704 178.243 174.162 178.232 174.283C178.202 174.607 178.551 174.896 178.884 174.824C179.367 174.718 181.048 173.115 181.599 172.235C183.669 168.924 183.46 164.419 181.104 161.567C180.305 160.6 180.009 160.425 179.66 160.715ZM174.029 185.488C173.918 186.692 173.472 187.384 172.519 187.833L171.84 188.153L161.496 187.196L151.151 186.239L150.563 185.825C149.709 185.225 149.377 184.42 149.487 183.224L149.575 182.272L161.846 183.407L174.117 184.542L174.029 185.488ZM159.505 184.715C159.37 184.827 159.253 184.998 159.244 185.094C159.203 185.538 159.549 185.646 161.621 185.838C163.693 186.029 164.054 185.986 164.095 185.543C164.104 185.447 164.02 185.257 163.908 185.122C163.742 184.923 163.334 184.843 161.727 184.694C160.12 184.545 159.704 184.549 159.505 184.715Z" fill="#F6BD00"/>
<path fill-rule="evenodd" clip-rule="evenodd" d="M176.325 146.701C177.179 147.318 177.491 148.08 177.379 149.284L177.292 150.23L165.021 149.094L152.75 147.959L152.838 147.013C152.972 145.562 153.709 144.702 155.058 144.421C155.279 144.375 160.017 144.771 165.588 145.3L175.716 146.263L176.325 146.701ZM165.357 147.738C164.837 147.884 164.426 147.211 164.804 146.832C164.909 146.727 165.108 146.651 165.246 146.664C165.804 146.715 165.894 147.586 165.357 147.738Z" fill="#FFEDB2"/>
<path fill-rule="evenodd" clip-rule="evenodd" d="M174.029 185.488C173.918 186.692 173.472 187.384 172.519 187.833L171.84 188.153L161.496 187.196L151.151 186.239L150.563 185.825C149.709 185.225 149.377 184.42 149.487 183.224L149.575 182.272L161.846 183.407L174.117 184.542L174.029 185.488ZM159.244 185.094C159.253 184.998 159.37 184.827 159.505 184.715C159.704 184.549 160.12 184.545 161.727 184.694C163.334 184.843 163.742 184.923 163.908 185.122C164.02 185.257 164.104 185.447 164.095 185.543C164.054 185.986 163.693 186.029 161.621 185.838C159.549 185.646 159.203 185.538 159.244 185.094Z" fill="#FFEDB2"/>
<path d="M175.704 167.386L174.223 183.399L161.952 182.263L149.681 181.128L151.163 165.115L152.644 149.103L164.915 150.238L177.186 151.373L175.704 167.386Z" fill="#FFF7DB"/>
</svg>
