<svg width="30" height="30" viewBox="0 0 30 30" fill="none" xmlns="http://www.w3.org/2000/svg">
<path fill-rule="evenodd" clip-rule="evenodd" d="M8 1.45455C4.38505 1.45455 1.45455 4.38505 1.45455 8C1.45455 11.615 4.38505 14.5455 8 14.5455C11.615 14.5455 14.5455 11.615 14.5455 8C14.5455 4.38505 11.615 1.45455 8 1.45455ZM0 8C0 3.58172 3.58172 0 8 0C12.4183 0 16 3.58172 16 8C16 12.4183 12.4183 16 8 16C3.58172 16 0 12.4183 0 8ZM11.3747 5.62311C11.6832 5.88025 11.7249 6.33884 11.4678 6.64741L7.83143 11.011C7.70062 11.168 7.50981 11.2627 7.30568 11.272C7.10156 11.2812 6.90295 11.2042 6.75847 11.0597L4.57665 8.8779C4.29263 8.59388 4.29263 8.13339 4.57665 7.84938C4.86067 7.56536 5.32115 7.56536 5.60517 7.84938L7.22386 9.46806L10.3504 5.71623C10.6075 5.40766 11.0661 5.36597 11.3747 5.62311Z" fill="#F6BD00"/>
</svg>
